# xmcd CD database generated by RipIT
#
# Track frame offsets:
# 174
# 26940
# 46960
# 70549
# 92334
# 113599
# 138688
# 162583
# 180122
# 201654
#
# Disc length: 2909 seconds
#
# Revision: 0
# Processed by: cddbd v1.5.1PL0 Copyright (c) Steve Scherf et al.
# Submitted via: manually at Mon Jul 18 15:47:47 IST 2005
#
DISCID=850b5b0a
DTITLE=Abhijeet Sawant - Aapka... Abhijeet Sawant
DYEAR=2004
DGENRE=
TTITLE0=Mohabbatein Lutaaunga
TTITLE1=Lafzon Mein
TTITLE2=Jaana (ft. Prajakta Shukre)
TTITLE3=Kya Tujhe Pata Hai
TTITLE4=Janam Janam
TTITLE5=Lamha
TTITLE6=Yaaron Chalo
TTITLE7=Dream Girl
TTITLE8=Ek Jahan (One World, ft. Indian Idol Finalists)
TTITLE9=Mohabbatein Lutaaunga (winning performance)
EXTD=
EXTT0=
EXTT1=
EXTT2=
EXTT3=
EXTT4=
EXTT5=
EXTT6=
EXTT7=
EXTT8=
EXTT9=
PLAYORDER=
